# xmcd CD database file
#
# Track frame offsets:
#	182
#	29057
#	46832
#	62507
#	89957
#	95432
#	103082
#	114032
#	127832
#	138707
#	150632
#	161432
#	170057
#	177482
#	189032
#	192107
#	197357
#	201407
#	206357
#	216032
#	227057
#	238607
#	252857
#	266957
#	283157
#	292907
#	303557
#	318107
#
# Disc length: 4368 seconds
#
# Revision: 0
# Processed by: cddbd v1.5.1PL0 Copyright (c) Steve Scherf et al.
# Submitted via: CDex 1.51
#
DISCID=95110e1c
DTITLE=Sonoton Authentic Series - SAS 027 - Authentic  Holland
DYEAR=1989
DGENRE=Contentum
TTITLE0=Noth Holland dances
TTITLE1=The achteroek dances
TTITLE2=Old zuiderzee music
TTITLE3=Brabant dances
TTITLE4=The bruid
TTITLE5=Horlepiep
TTITLE6=Peerdensprong
TTITLE7=Ijswals
TTITLE8=Luciawals
TTITLE9=Boemel Petrus
TTITLE10=Step  (Had je mar)
TTITLE11=Rozenwals
TTITLE12=Duitse polka
TTITLE13=Mazurka
TTITLE14=Schaatsenrijderswals
TTITLE15=De molen
TTITLE16=Piastertje
TTITLE17=Ome gerritje
TTITLE18=Old waltz  (Schotse Wals)
TTITLE19=Zevensprong
TTITLE20=Mazurka from Schagen
TTITLE21=Chorus of the Hebrew Slaves (From Nabukonosor)
TTITLE22=Blue Danbue watz  (An der schönen blauen Donau)
TTITLE23=Schatzwalzer
TTITLE24=Das kommt vom Rudern
TTITLE25=Schön ist die Jugendzeit
TTITLE26=Wien bleibt Wien
TTITLE27=Plaisir d'amour
EXTD=YEAR: 1989
EXTT0=
EXTT1=
EXTT2=
EXTT3=
EXTT4=
EXTT5=
EXTT6=
EXTT7=
EXTT8=
EXTT9=
EXTT10=
EXTT11=
EXTT12=
EXTT13=
EXTT14=
EXTT15=
EXTT16=
EXTT17=
EXTT18=
EXTT19=
EXTT20=
EXTT21=
EXTT22=
EXTT23=
EXTT24=
EXTT25=
EXTT26=
EXTT27=
PLAYORDER=
